<svg width="541" height="405" viewBox="0 0 541 405" fill="none" xmlns="http://www.w3.org/2000/svg">
<g clip-path="url(#clip0_2:1906)">
<path d="M359.254 72.242L136.723 91.4627C64.4653 97.7184 10.9783 161.345 17.2245 233.575C23.4796 305.826 87.1058 359.313 159.351 353.073L381.919 333.806C454.156 327.552 507.65 263.926 501.418 191.687C495.149 119.444 431.515 65.9506 359.254 72.242Z" fill="#FAF7F5"/>
<path d="M156.111 367.422C160.331 377.613 155.313 389.362 144.935 393.691C134.556 398.019 122.692 393.203 118.47 382.991C114.248 372.779 119.268 361.051 129.647 356.729C140.026 352.407 151.89 357.217 156.111 367.422Z" fill="#FFFEF1"/>
<path d="M135.175 380.561C130.775 380.988 126.354 379.996 122.559 377.73C118.764 375.465 115.792 372.045 114.08 367.97C113.04 365.451 112.516 362.75 112.538 360.026C112.561 357.301 113.129 354.609 114.211 352.108C115.819 348.329 118.499 345.104 121.92 342.832C125.342 340.561 129.354 339.342 133.461 339.327C137.568 339.313 141.589 340.502 145.027 342.749C148.464 344.996 151.168 348.202 152.802 351.97C154.864 357.08 154.815 362.799 152.666 367.874C150.517 372.948 146.445 376.964 141.34 379.04C139.374 379.855 137.295 380.368 135.175 380.561ZM132.491 348.024C131.244 348.14 130.021 348.443 128.864 348.923C125.854 350.149 123.451 352.516 122.178 355.507C121.549 356.953 121.219 358.511 121.207 360.088C121.194 361.664 121.501 363.227 122.107 364.683C122.927 366.809 124.323 368.664 126.138 370.041C127.954 371.418 130.117 372.262 132.385 372.478C134.653 372.694 136.936 372.274 138.979 371.265C141.022 370.256 142.744 368.698 143.951 366.766C145.157 364.833 145.802 362.603 145.812 360.324C145.822 358.046 145.198 355.81 144.008 353.867C142.818 351.923 141.111 350.35 139.077 349.323C137.043 348.296 134.764 347.856 132.494 348.052L132.491 348.024Z" fill="#28AFC9"/>
<path d="M460.591 87.3707C478.684 75.5306 502.039 79.2027 512.761 95.5795C523.484 111.956 517.511 134.839 499.418 146.679C481.324 158.519 457.968 154.833 447.247 138.47C436.526 122.107 442.498 99.2179 460.591 87.3707Z" fill="#FFFEF1"/>
<path d="M469.035 163.772C455.634 165.008 442.483 159.548 435.118 148.293C424.124 131.497 430.102 108.057 448.441 96.0528C457.013 90.3319 467.409 88.01 477.6 89.5402C487.742 91.137 496.288 96.5347 501.657 104.736C507.027 112.938 508.562 122.933 505.966 132.864C503.287 142.813 496.999 151.407 488.326 156.97C482.549 160.782 475.925 163.118 469.035 163.772ZM453.202 103.309C438.861 112.701 434.008 130.747 442.382 143.539C450.757 156.331 469.21 159.1 483.572 149.706C490.44 145.319 495.429 138.533 497.567 130.669C499.532 123.138 498.407 115.61 494.393 109.483C490.378 103.357 483.94 99.3171 476.253 98.1076C468.187 96.9192 459.968 98.7735 453.195 103.31L453.202 103.309Z" fill="#28AFC9"/>
<path d="M80.6017 94.7911L62.9932 98.8135C61.1407 99.2363 59.3896 100.02 57.84 101.119C56.2903 102.219 54.9724 103.613 53.9614 105.222C52.9505 106.831 52.2664 108.623 51.9481 110.496C51.6299 112.369 51.6837 114.287 52.1065 116.14L57.2629 138.701C57.6857 140.553 58.4692 142.304 59.5687 143.854C60.6683 145.404 62.0623 146.722 63.6712 147.733C65.28 148.744 67.0723 149.428 68.9456 149.746C70.8189 150.064 72.7365 150.01 74.589 149.588L92.1975 145.565C96.3971 144.609 100.74 144.462 104.995 145.132L167.808 155.012L144.624 53.4629L92.3279 89.6255C88.7842 92.079 84.804 93.8324 80.6017 94.7911Z" fill="#FFFEF1"/>
<path d="M173.473 160.294L104.326 149.419C100.609 148.832 96.8138 148.962 93.1457 149.802L75.5372 153.824C70.6754 154.926 65.575 154.056 61.3535 151.404C57.132 148.753 54.1336 144.536 53.0153 139.678L47.8653 117.109C46.7633 112.247 47.6333 107.147 50.2848 102.925C52.9363 98.7039 57.153 95.7055 62.0111 94.5872L79.6273 90.5712C83.2941 89.7476 86.7694 88.2299 89.8657 86.1001L147.435 46.2417L173.473 160.294ZM96.2341 140.537C99.3805 140.245 102.551 140.348 105.672 140.845L162.159 149.742L141.826 60.6757L94.7976 93.2277C90.7993 96.002 86.3055 97.9825 81.5601 99.0618L63.9478 103.042C61.3315 103.645 59.0607 105.26 57.6324 107.533C56.2041 109.807 55.7348 112.553 56.3272 115.172L61.4772 137.741C62.0783 140.358 63.6928 142.63 65.9667 144.059C68.2405 145.487 70.9881 145.956 73.6069 145.361L91.2154 141.339C92.8688 140.962 94.5454 140.694 96.2341 140.537Z" fill="#EB4D86"/>
<path d="M51.7703 114.71L47.5422 115.672C46.4303 115.925 45.3793 116.396 44.4492 117.056C43.5191 117.716 42.7282 118.553 42.1216 119.518C41.5151 120.484 41.1048 121.56 40.9141 122.684C40.7235 123.809 40.7563 124.96 41.0106 126.072L42.9441 134.569C43.4612 136.81 44.8466 138.755 46.7961 139.976C48.7456 141.196 51.0999 141.593 53.342 141.08L57.5701 140.118L51.7703 114.71Z" fill="#FAF7F5"/>
<path d="M52.5937 145.586C49.4538 145.869 46.3176 145.005 43.7657 143.154C41.2139 141.303 39.4194 138.589 38.7146 135.516L36.7843 127.054C36.4034 125.387 36.3546 123.662 36.6405 121.977C36.9265 120.291 37.5416 118.679 38.4509 117.231C39.3601 115.784 40.5457 114.529 41.9397 113.54C43.3338 112.551 44.9092 111.846 46.5758 111.465L55.0383 109.535L62.7665 143.385L54.3046 145.322C53.7407 145.448 53.1692 145.536 52.5937 145.586ZM48.508 119.949C47.9526 120.076 47.4277 120.311 46.9632 120.64C46.4988 120.97 46.1039 121.388 45.8012 121.871C45.4985 122.354 45.2939 122.891 45.1991 123.453C45.1043 124.015 45.1212 124.589 45.2488 125.145L47.1791 133.607C47.4386 134.727 48.1306 135.699 49.1042 136.311C50.0777 136.923 51.2537 137.125 52.3756 136.873L48.508 119.949Z" fill="#28AFC9"/>
<path d="M73.1588 149.91L78.9567 175.297C79.3381 176.966 80.0448 178.544 81.0363 179.939C82.0278 181.335 83.2847 182.522 84.7351 183.432C86.1855 184.341 87.801 184.956 89.4892 185.241C91.1774 185.527 92.9053 185.476 94.574 185.093C96.2412 184.712 97.8172 184.007 99.2117 183.017C100.606 182.027 101.792 180.772 102.701 179.324C103.611 177.876 104.226 176.262 104.511 174.576C104.796 172.89 104.747 171.164 104.365 169.497L98.5529 144.111L73.1588 149.91Z" fill="white"/>
<path d="M93.2344 189.688C89.0462 190.07 84.8618 188.92 81.4566 186.452C78.0514 183.984 75.6563 180.365 74.7152 176.267L67.9623 146.644L101.812 138.916L108.565 168.538C109.584 173.027 108.781 177.736 106.331 181.633C103.882 185.53 99.9867 188.296 95.5002 189.324C94.754 189.496 93.997 189.618 93.2344 189.688ZM78.3615 153.168L83.1904 174.321C83.7365 176.53 85.1278 178.436 87.065 179.629C89.0022 180.822 91.3304 181.207 93.5486 180.701C95.7668 180.195 97.6977 178.839 98.9259 176.923C100.154 175.008 100.581 172.687 100.116 170.46L95.2866 149.308L78.3615 153.168Z" fill="#F6A6BF"/>
<path d="M92.7549 118.724C90.56 109.497 89.9195 99.968 90.8596 90.5298C87.6998 92.5083 84.2334 93.9483 80.6018 94.7911L62.9933 98.8135C61.1408 99.2362 59.3897 100.02 57.84 101.119C56.2904 102.219 54.9724 103.613 53.9615 105.222C52.9506 106.831 52.2664 108.623 51.9482 110.496C51.6299 112.369 51.6837 114.287 52.1066 116.14L57.2629 138.701C57.6857 140.553 58.4693 142.304 59.5688 143.854C60.6683 145.404 62.0623 146.722 63.6712 147.733C65.2801 148.744 67.0724 149.428 68.9456 149.746C70.8189 150.064 72.7366 150.01 74.589 149.588L92.1975 145.565C95.8456 144.748 99.6033 144.537 103.32 144.941C98.3684 136.849 94.798 127.989 92.7549 118.724Z" fill="#FAF7F5"/>
<path d="M73.0417 154.224C68.5065 154.631 63.9772 153.382 60.2924 150.706C56.6077 148.031 54.0172 144.111 53.0006 139.673L47.8506 117.104C46.7486 112.242 47.6186 107.141 50.2701 102.92C52.9216 98.6984 57.1383 95.7 61.9964 94.5817L79.6126 90.5657C82.7864 89.826 85.8162 88.5671 88.5796 86.8396L96.166 82.1405L95.1787 91.0132C94.2847 99.9673 94.8802 109.008 96.9411 117.767C98.8752 126.554 102.253 134.959 106.938 142.64L111.678 150.208L102.802 149.264C99.5636 148.909 96.2891 149.092 93.1106 149.805L75.4951 153.828C74.6868 154.013 73.8673 154.145 73.0417 154.224ZM86.1018 97.6767C84.6167 98.2221 83.0987 98.6731 81.5568 99.027L63.9477 103.042C61.3314 103.645 59.0606 105.26 57.6323 107.533C56.2041 109.807 55.7347 112.553 56.3271 115.172L61.4771 137.741C62.0765 140.359 63.6907 142.632 65.965 144.061C68.2394 145.49 70.9879 145.958 73.6068 145.362L91.2153 141.339C92.7588 140.986 94.3235 140.734 95.8996 140.583C89.3712 127.227 86.018 112.543 86.1018 97.6767Z" fill="#F6A6BF"/>
<path d="M188.812 96.7939C195.749 127.19 187.871 154.882 171.243 158.68C154.616 162.478 135.475 140.938 128.539 110.557C121.603 80.1747 129.473 52.469 146.108 48.6705C162.742 44.872 181.877 66.419 188.812 96.7939Z" fill="white"/>
<path d="M169.334 163.371C150.877 165.073 131.493 143.119 124.284 111.528C120.748 96.1386 120.746 80.8185 124.293 68.5002C128.069 55.2157 135.471 46.6824 145.142 44.4783C164.443 40.0601 185.456 62.626 193.043 95.8609C196.578 111.25 196.58 126.57 193.037 138.93C189.261 152.208 181.859 160.741 172.195 162.952C171.251 163.153 170.296 163.293 169.334 163.371ZM148.786 52.6277C148.208 52.682 147.635 52.775 147.07 52.9059C140.631 54.3744 135.505 60.744 132.641 70.8338C129.515 81.8364 129.551 95.6017 132.748 109.618C139.032 137.14 156.225 157.667 170.256 154.476C176.694 153.007 181.82 146.638 184.691 136.54C187.816 125.538 187.774 111.773 184.577 97.7562C178.551 71.3463 162.487 51.3639 148.786 52.6277Z" fill="#F6A6BF"/>
<path d="M174.816 99.9895C179.442 120.244 175.96 138.312 167.034 140.348C158.109 142.385 147.133 127.618 142.505 107.343C137.877 87.0677 141.368 69.0201 150.286 66.9843C159.205 64.9485 170.204 79.7339 174.816 99.9895Z" fill="#F6A6BF"/>
<path d="M166.432 144.833C160.837 145.349 154.914 141.847 149.679 134.804C144.695 128.104 140.647 118.708 138.281 108.346C135.914 97.9841 135.478 87.7473 137.035 79.5415C138.854 70.1265 143.205 64.1598 149.307 62.7859C155.409 61.4119 161.906 64.8684 167.624 72.5584C172.615 79.2574 176.655 88.6539 179.029 99.0153C184.354 122.337 179.601 141.919 167.982 144.577C167.471 144.696 166.954 144.782 166.432 144.833ZM151.654 71.1748C151.52 71.1796 151.387 71.1919 151.255 71.2115C148.83 71.7667 146.649 75.5723 145.577 81.1518C144.216 88.1968 144.633 97.1516 146.739 106.374C148.846 115.596 152.357 123.842 156.64 129.598C160.031 134.159 163.639 136.648 166.063 136.093C170.899 134.984 175.107 120.728 170.579 100.93C168.473 91.7081 164.954 83.4556 160.677 77.6993C157.475 73.4169 154.06 70.9529 151.654 71.1748Z" fill="#F6A6BF"/>
<path d="M169.647 99.8525C168.964 96.8413 167.581 94.0334 165.611 91.6559C163.64 89.2784 161.138 87.3983 158.306 86.1678C155.474 84.9372 152.392 84.3907 149.31 84.5726C146.227 84.7545 143.231 85.6597 140.563 87.2148C140.318 93.9882 140.98 100.764 142.535 107.361C143.802 113.022 145.694 118.526 148.174 123.77C151.305 124.143 154.48 123.759 157.431 122.648C160.383 121.538 163.024 119.734 165.131 117.389C167.239 115.044 168.753 112.226 169.543 109.174C170.334 106.121 170.379 102.924 169.675 99.85L169.647 99.8525Z" fill="white"/>
<path d="M152.726 128.153C151.033 128.307 149.329 128.282 147.641 128.079L145.274 127.804L144.236 125.657C141.612 120.122 139.614 114.311 138.279 108.332C136.636 101.35 135.937 94.1789 136.2 87.0107L136.314 84.6514L138.354 83.4475C141.613 81.5548 145.272 80.4547 149.035 80.236C152.798 80.0173 156.559 80.686 160.016 82.1883C163.473 83.6906 166.528 85.9843 168.935 88.8844C171.343 91.7846 173.035 95.21 173.875 98.8842C175.294 105.1 174.187 111.625 170.799 117.026C167.41 122.426 162.015 126.261 155.801 127.686C154.788 127.911 153.761 128.067 152.726 128.153ZM150.996 119.567C153.133 119.492 155.231 118.972 157.156 118.039C159.08 117.106 160.788 115.781 162.171 114.15C163.553 112.518 164.579 110.616 165.183 108.564C165.787 106.513 165.956 104.358 165.679 102.237C165.401 100.117 164.683 98.0778 163.572 96.2509C162.46 94.4241 160.979 92.8497 159.223 91.6288C157.467 90.408 155.476 89.5675 153.376 89.1614C151.277 88.7552 149.115 88.7924 147.031 89.2704C146.273 89.4398 145.53 89.6687 144.809 89.9551C144.833 95.4926 145.482 101.01 146.742 106.402C147.763 110.909 149.186 115.315 150.996 119.567Z" fill="#F6A6BF"/>
<path d="M338.84 365.119L252.362 372.602C251.216 372.708 250.074 372.354 249.189 371.618C248.303 370.882 247.747 369.825 247.641 368.678C247.535 367.532 247.889 366.391 248.625 365.505C249.361 364.62 250.418 364.063 251.565 363.957L338.042 356.475C339.189 356.369 340.33 356.723 341.215 357.459C342.101 358.194 342.657 359.252 342.763 360.398C342.869 361.545 342.515 362.686 341.779 363.571C341.043 364.457 339.986 365.013 338.84 365.119Z" fill="#EB4D86"/>
<path d="M93.1876 357.341C92.1946 357.434 91.2 357.182 90.3709 356.628C61.9177 337.554 41.7324 308.424 33.8675 275.085C26.0026 241.745 31.0401 206.664 47.9689 176.885C48.2469 176.382 48.6222 175.939 49.0727 175.582C49.5233 175.226 50.0403 174.962 50.5937 174.806C51.1471 174.651 51.7258 174.607 52.2964 174.677C52.8669 174.747 53.4179 174.929 53.9173 175.214C54.4167 175.498 54.8546 175.879 55.2056 176.335C55.5565 176.79 55.8136 177.31 55.9618 177.866C56.1101 178.421 56.1465 179 56.069 179.57C55.9916 180.139 55.8018 180.688 55.5106 181.184C39.6613 209.055 34.9434 241.89 42.3042 273.096C49.6651 304.302 68.5596 331.568 95.1936 349.419C95.9491 349.913 96.5312 350.631 96.8587 351.472C97.1863 352.314 97.2428 353.236 97.0206 354.111C96.7983 354.986 96.3083 355.77 95.619 356.353C94.9296 356.936 94.0754 357.29 93.1756 357.364L93.1876 357.341Z" fill="#F6A6BF"/>
<path d="M417.058 100.767C416.611 100.809 416.162 100.782 415.724 100.686C403.183 97.9351 390.297 97.1069 377.507 98.2294C376.361 98.3351 375.219 97.9811 374.334 97.2453C373.448 96.5095 372.892 95.4521 372.786 94.3057C372.68 93.1594 373.034 92.018 373.77 91.1326C374.506 90.2472 375.563 89.6905 376.71 89.5847C390.373 88.3901 404.139 89.275 417.538 92.2093C418.546 92.4299 419.442 93.0023 420.067 93.8239C420.691 94.6456 421.002 95.6627 420.944 96.6929C420.886 97.7232 420.463 98.6991 419.751 99.4458C419.039 100.192 418.084 100.661 417.058 100.767Z" fill="#FFFEF1"/>
<path d="M400.916 359.746L400.147 359.817L372.856 362.179C371.736 362.237 370.638 361.86 369.79 361.126C368.943 360.393 368.412 359.359 368.309 358.243C368.206 357.127 368.539 356.014 369.238 355.138C369.937 354.261 370.948 353.689 372.059 353.542L399.349 351.173L400.049 351.108C469.43 344.709 520.873 283.246 514.858 213.752C513.438 197.007 508.691 180.714 500.895 165.827C500.381 164.809 500.289 163.631 500.638 162.545C500.986 161.46 501.748 160.555 502.758 160.027C503.768 159.498 504.945 159.388 506.036 159.721C507.126 160.053 508.042 160.801 508.586 161.803C516.934 177.692 522.029 195.087 523.575 212.969C530.031 287.24 475.032 352.91 400.916 359.746Z" fill="#F6A6BF"/>
<path fill-rule="evenodd" clip-rule="evenodd" d="M292.297 163.205V163.469C292.272 163.429 292.259 163.383 292.259 163.337C292.259 163.29 292.272 163.244 292.297 163.205Z" fill="#241D50"/>
<path fill-rule="evenodd" clip-rule="evenodd" d="M292.318 163.468C293.679 165.503 328.175 159.571 328.175 159.571C328.175 159.571 347.116 192.326 331.104 227.38C320.13 250.221 310.916 265.124 312.27 290.849C322.681 292.99 321.819 300.513 315.242 300.213C314.009 300.213 308.002 300.32 307.154 300.249C299.123 299.535 304.304 266.702 306.178 256.438C306.577 254.539 306.741 253.39 306.741 253.39C306.741 253.39 306.52 254.525 306.178 256.438C304.582 263.989 299.244 283.497 285.513 290.635C286.532 290.071 291.855 290.428 295.489 292.126C302.38 295.338 307.09 301.277 292.083 300.213C273.384 300.642 255.377 300.178 255.377 300.178C255.377 300.178 205.852 273.604 248.458 229.964C270.007 207.894 297.156 220.349 292.318 163.468Z" fill="#241D50"/>
<path fill-rule="evenodd" clip-rule="evenodd" d="M306.177 256.466C306.519 254.553 306.74 253.418 306.74 253.418C306.74 253.418 306.576 254.568 306.177 256.466Z" fill="#241D50"/>
<path d="M199.952 174.39C223.004 181.527 229.731 215.946 234.234 265.46C234.876 272.469 238.118 293.661 260.18 299.279C260.101 299.457 260.03 299.628 259.959 299.807C229.353 302.662 216.127 273.94 214.246 248.751C210.833 211.242 206.087 186.224 185.842 192.719C177.035 196.624 172.332 166.288 199.952 174.39Z" fill="#2A2460"/>
<path fill-rule="evenodd" clip-rule="evenodd" d="M269.109 135.96C275.052 136.638 285.349 137.987 286.446 139.329C295.303 128.907 313.033 128.015 318.128 127.987L339.997 109.614C340.342 109.322 340.757 109.125 341.201 109.043C341.644 108.961 342.101 108.997 342.527 109.146C342.954 109.295 343.333 109.553 343.63 109.894C343.926 110.235 344.127 110.648 344.216 111.092C345.712 118.643 348.634 133.54 348.391 133.982C373.567 170.713 324.299 187.772 304.874 185.988C282.178 181.641 276.869 174.097 274.232 166.716C271.189 158.151 272.429 156.638 272.429 156.638L266.337 139.507C266.183 139.084 266.139 138.628 266.21 138.183C266.281 137.738 266.464 137.318 266.741 136.963C267.018 136.608 267.381 136.33 267.795 136.154C268.209 135.979 268.661 135.912 269.109 135.96Z" fill="#2A2460"/>
<path d="M306.035 168.793C308.009 169.686 309.42 169.793 310.004 169.115C310.717 168.301 310.368 166.502 310.133 165.967L310.019 165.817C309.922 165.692 309.87 165.539 309.87 165.382C309.87 165.224 309.922 165.071 310.019 164.946C310.108 164.813 310.24 164.714 310.392 164.664C310.545 164.615 310.709 164.619 310.859 164.675C311.068 164.771 311.238 164.935 311.344 165.139C312.769 166.988 314.244 167.837 315.62 167.673C318.89 167.309 321.263 161.891 321.263 161.82C321.301 161.732 321.355 161.653 321.423 161.586C321.491 161.519 321.572 161.467 321.66 161.432C321.749 161.396 321.843 161.378 321.938 161.379C322.033 161.38 322.127 161.4 322.215 161.438C322.302 161.475 322.381 161.53 322.448 161.598C322.515 161.666 322.567 161.747 322.602 161.835C322.638 161.923 322.655 162.018 322.654 162.114C322.653 162.209 322.634 162.303 322.596 162.391C322.489 162.648 319.888 168.629 315.819 169.122C315.104 169.187 314.382 169.103 313.701 168.873C313.019 168.644 312.394 168.273 311.864 167.787C311.878 168.287 311.779 168.783 311.578 169.24C311.375 169.696 311.074 170.103 310.696 170.428C310.272 170.705 309.794 170.889 309.295 170.969C308.795 171.049 308.284 171.023 307.795 170.892C306.982 170.723 306.19 170.459 305.437 170.107C305.348 170.07 305.269 170.015 305.202 169.946C305.136 169.878 305.083 169.796 305.049 169.707C305.014 169.618 304.998 169.522 305.001 169.427C305.004 169.331 305.026 169.237 305.066 169.15C305.105 169.061 305.16 168.981 305.231 168.915C305.301 168.848 305.384 168.797 305.474 168.763C305.565 168.73 305.661 168.716 305.758 168.721C305.854 168.726 305.948 168.751 306.035 168.793Z" fill="white"/>
<path fill-rule="evenodd" clip-rule="evenodd" d="M308.936 160.314C308.793 160.314 316.967 153.64 310.304 165.217C310.304 165.217 298.781 159.557 308.936 160.314Z" fill="url(#paint0_linear_2:1906)"/>
<path fill-rule="evenodd" clip-rule="evenodd" d="M365.357 147.894C364.445 147.716 350.564 146.524 334.716 157.43C334.716 157.43 351.091 143.062 365.357 147.894Z" fill="white"/>
<path fill-rule="evenodd" clip-rule="evenodd" d="M366.113 159.029C365.329 158.593 352.966 153.418 335.415 158.779C335.415 158.779 354.427 150.399 366.113 159.029Z" fill="white"/>
<path fill-rule="evenodd" clip-rule="evenodd" d="M293.771 169.629C279.684 170.835 272.579 178.272 272.686 178.265C278.33 169.122 293.771 169.629 293.771 169.629Z" fill="white"/>
<path fill-rule="evenodd" clip-rule="evenodd" d="M293.992 170.685C281.5 175.867 277.168 184.775 277.261 184.739C279.783 174.668 293.992 170.685 293.992 170.685Z" fill="white"/>
<path opacity="0.21" fill-rule="evenodd" clip-rule="evenodd" d="M340.737 115.667C344.365 116.345 342.12 131.513 342.12 131.513C337.844 128.647 332.82 127.108 327.676 127.087C327.676 127.087 337.118 114.996 340.737 115.667Z" fill="white"/>
<path opacity="0.21" fill-rule="evenodd" clip-rule="evenodd" d="M273.227 140.906C275.657 140.192 283.203 143.047 283.203 143.047C278.436 143.89 275.621 149.721 275.621 149.721C275.621 149.721 270.79 141.606 273.227 140.906Z" fill="white"/>
</g>
<defs>
<linearGradient id="paint0_linear_2:1906" x1="312.919" y1="161.806" x2="304.753" y2="161.806" gradientUnits="userSpaceOnUse">
<stop stop-color="#EC6588"/>
<stop offset="1" stop-color="#E71A80"/>
</linearGradient>
<clipPath id="clip0_2:1906">
<rect width="509.91" height="359.637" fill="white" transform="translate(0 46.834) rotate(-5.2699)"/>
</clipPath>
</defs>
</svg>
